<svg id="Layer_1" enable-background="new 0 0 512 512" height="512" viewBox="0 0 512 512" width="512" xmlns="http://www.w3.org/2000/svg"><g><path d="m400.6 80.333c-26.085 0-47.133 21.102-47.133 47.134v49.267h-34.267v-113.534c0-34.848-28.351-63.2-63.2-63.2-34.896 0-63.2 28.223-63.2 63.2v193.866h-34.267v-81.399c0-25.989-21.144-47.134-47.133-47.134-26.085 0-47.134 21.101-47.134 47.134v96.399c0 43.708 35.559 79.267 79.267 79.267h49.267v100.667h126.4v-181h49.267c43.708 0 79.267-35.559 79.267-79.267v-64.267c-.001-25.988-21.145-47.133-47.134-47.133z"/><path d="m368.467 482h-224.934c-8.284 0-15 6.716-15 15s6.716 15 15 15h224.934c8.284 0 15-6.716 15-15s-6.716-15-15-15z"/></g></svg>