<svg id="Capa_1" enable-background="new 0 0 512 512" height="512" viewBox="0 0 512 512" width="512" xmlns="http://www.w3.org/2000/svg"><g><path d="m512 75c0-41.353-33.647-75-75-75-16.811 0-32.176 5.771-44.695 15.153-.058.043-.135.05-.2.018-.064-.033-.105-.099-.105-.171v-15h-272v15.383c-12.574-9.518-28.052-15.383-45-15.383-41.353 0-75 33.647-75 75 0 36.211 26.235 63.461 49.395 86.605 20.888 20.889 40.605 40.606 40.605 64.395 0 8.276-6.724 15-15 15s-15-6.724-15-15v-15h-30v15c0 24.814 20.186 45 45 45s45-20.186 45-45c0-36.211-26.235-62.461-49.395-85.605-20.888-20.889-40.605-41.606-40.605-65.395 0-24.814 20.186-45 45-45s45 20.186 45 45v61c0 57.671 37.46 108.457 91 127.324v69.185c-29.326 5.98-52.359 29.169-58.356 58.491h206.711c-5.997-29.323-29.03-52.511-58.356-58.491v-69.185c53.54-18.867 91-69.653 91-127.324v-61c0-24.814 20.186-45 45-45s45 20.186 45 45c0 23.789-19.717 44.506-40.605 65.395-23.159 23.144-49.394 49.394-49.394 85.605 0 24.814 20.186 45 45 45s45-20.186 45-45v-15h-30v15c0 8.276-6.724 15-15 15s-15-6.724-15-15c0-23.789 19.717-43.506 40.605-64.395 23.16-23.144 49.395-50.394 49.395-86.605z"/><path d="m121 421h270v91h-270z"/></g></svg>